<?xml version="1.0" encoding="UTF-8"?><svg id="Layer_1" xmlns="http://www.w3.org/2000/svg" viewBox="0 0 113.76 33.12"><defs><style>.cls-1{fill:#fff;}.cls-2{fill:#ef4136;}.cls-3{fill:#231f20;}.cls-4{fill:#414042;}</style></defs><path class="cls-4" d="m110.21,11.27c-.1,0-.2,0-.3.01.33-.5-3.12-.95-3.12-1.55,0-2.2,1.38-3.96-.62-3.96-.94,0-1.87.37-2.53,1.03-.66.64-2.18,2.51-3.77,4.66-.46-.12-.95-.19-1.46-.19-1.31,0-2.53.5-3.6,1.21-.76-.76-1.78-1.27-2.81-1.27-.81,0-1.54.27-2.14.78-.55-.51-1.29-.83-2.13-.83-.98,0-2.01.44-2.76,1.18-.88-.69-1.98-1.07-3.24-1.07-.44,0-.87.06-1.29.16.02-.22.23-.57.03-.66-4.02-1.81-2.94-7.07-7.49-7.07-3.74,0-8.19,2.01-11.9,5.39-1.7,1.55-3.09,3.26-4.13,5.04-.32-1.65-1.73-2.86-3.48-2.86-.48,0-.98.09-1.73.44.13-1.55-.68-2.53-.99-2.84-.72-.72-1.7-1.12-2.74-1.12h0s-.04,0-.06,0c-.59-2.5-2.65-4.04-5.59-4.04-2.52,0-4.99.84-7.22,2.21-.74-1.26-2.15-2.21-3.57-2.21-4.36,0-8.2,3.34-11.65,6.93-1.13-1.01-2.63-1.81-4.57-1.81-2.48,0-5.11,1.95-5.11,5.57,0,2.27,1.25,3.45,2.58,3.71-2.44,2.33-4.98,4.19-7.28,4.19-1.81,0-3.18,1.47-3.18,3.42,0,2.61,2.22,5.31,5.95,5.31,3.47,0,6.41-2.36,8.95-5.27-.01.17-.02.34-.02.51,0,2.99,2.23,4.56,4.43,4.56,2.92,0,6.12-2.7,6.12-5.16,0-.15-.02-.41-.09-.71.27.35.56.65.83.89.14.13.29.25.44.37-.06.33-.09.69-.09,1.08,0,3.37,2.21,5.81,5.27,5.81,4.69,0,7.25-4.68,9.24-8.92.93,1.99,2.52,3.4,4.87,3.4,3.85,0,5.55-3.66,6.52-6.75-.02.25-.03.5-.03.76,0,5.47,3.91,9.29,9.51,9.29,3.44,0,6.62-1.27,9.53-3.76.58.3,1.26.47,2.01.47.83,0,1.67-.21,2.53-.65.65.42,1.46.65,2.37.65,1.33,0,2.54-.61,3.66-1.56.74.99,1.93,1.59,3.4,1.59.85,0,1.64-.25,2.4-.67.65.41,1.44.65,2.33.65.97,0,1.89-.3,2.73-.76.67.48,1.53.76,2.5.76,1.33,0,2.53-.61,3.65-1.55.91.96,2.12,1.55,3.65,1.55,4.68,0,6.17-5.4,7.06-8.62.13-.47.29-1.05.42-1.46.77-.58,1.27-1.56,1.27-2.69,0-2-1.56-3.57-3.55-3.57Z"/><path class="cls-1" d="m108.67,9.49c-.1,0-.2,0-.3.01.33-.5.51-1.07.51-1.67,0-2.2-2.25-3.84-4.25-3.84-.94,0-1.87.37-2.53,1.03-.66.64-2.18,2.51-3.77,4.66-.46-.12-.95-.19-1.46-.19-1.31,0-2.53.5-3.6,1.21-.76-.76-1.78-1.27-2.81-1.27-.81,0-1.54.27-2.14.78-.55-.51-1.29-.83-2.13-.83-.98,0-2.01.44-2.76,1.18-.88-.69-1.98-1.07-3.24-1.07-.44,0-.87.06-1.29.16.02-.22.03-.44.03-.66,0-4.29-2.94-7.07-7.49-7.07-3.74,0-8.19,2.01-11.9,5.39-1.7,1.55-3.09,3.26-4.13,5.04-.32-1.65-1.73-2.86-3.48-2.86-.48,0-.98.09-1.73.44.13-1.55-.68-2.53-.99-2.84-.72-.72-1.7-1.12-2.74-1.12h0s-.04,0-.06,0c-.59-2.5-2.65-4.04-5.59-4.04-2.52,0-4.99.84-7.22,2.21-.74-1.26-2.15-2.21-3.57-2.21-4.36,0-8.2,3.34-11.65,6.93-1.13-1.01-2.63-1.81-4.57-1.81-2.48,0-5.11,1.95-5.11,5.57,0,2.27,1.25,3.45,2.58,3.71-2.44,2.33-4.98,4.19-7.28,4.19-1.81,0-3.18,1.47-3.18,3.42,0,2.61,2.22,5.31,5.95,5.31,3.47,0,6.41-2.36,8.95-5.27-.01.17-.02.34-.02.51,0,2.99,2.23,4.56,4.43,4.56,2.92,0,6.43-3.09,6.43-5.55,0-.15.67-.56.6-.86.27.35-.44,1.19-.17,1.44.14.13.29.25.44.37-.06.33-.09.69-.09,1.08,0,3.37,2.21,5.81,5.27,5.81,4.69,0,7.25-4.68,9.24-8.92.93,1.99,2.52,3.4,4.87,3.4,3.85,0,5.55-3.66,6.52-6.75-.02.25-.03.5-.03.76,0,5.47,3.91,9.29,9.51,9.29,3.44,0,6.62-1.27,9.53-3.76.58.3,1.26.47,2.01.47.83,0,1.67-.21,2.53-.65.65.42,1.46.65,2.37.65,1.33,0,2.54-.61,3.66-1.56.74.99,1.93,1.59,3.4,1.59.85,0,1.64-.25,2.4-.67.65.41,1.44.65,2.33.65.97,0,1.89-.3,2.73-.76.67.48,1.53.76,2.5.76,1.33,0,2.53-.61,3.65-1.55.91.96,2.12,1.55,3.65,1.55,4.68,0,6.17-5.4,7.06-8.62.13-.47.29-1.05.42-1.46.77-.58,1.27-1.56,1.27-2.69,0-2-1.56-3.57-3.55-3.57Z"/><path class="cls-3" d="m31.97,4.03c0,.11-.02.2-.09.26-3.87,3.87-9.17,13.01-9.17,16.18,0,1.45,1.38.86,1.38,1.49,0,.77-1.85,2.48-3.45,2.48-.84,0-1.76-.51-1.76-1.89,0-.48.09-1.03.24-1.67-.04-2.02-.48-3.91-1.14-5.5-3.45,4.79-6.88,9.25-10.7,9.25-2.33,0-3.28-1.63-3.28-2.64,0-.44.18-.75.51-.75,4.29,0,8.31-3.89,12.24-8.13-.9-1.27-1.93-2.04-2.86-2.04-.62,0-1.25.7-1.54.7-.31,0-.48-.46-.48-1.1,0-1.19.66-2.9,2.44-2.9,1.89,0,3.34,1.27,4.4,3.23,3.98-4.31,7.87-8.35,11.83-8.35.64,0,1.43.81,1.43,1.36Zm-2.88-.04c-3.43,1.08-6.48,5.01-9.47,9.14.42,1.23.73,2.62.9,4.04,2.09-4.46,5.76-9.98,8.57-13.19Z"/><path class="cls-3" d="m42.01,11.9c.33,0,.57.11.57.31,0,.15-.09.18-1.32,1.8-2.64,4.29-4.77,12.73-9.47,12.73-1.98,0-2.59-1.82-2.59-3.14,0-.75.2-1.34.46-1.34.07,0,.13.02.2.09.55.55,1.12.79,1.69.79,1.49,0,3.01-1.63,4.44-3.65-1.49,1.1-3.1,1.87-4.7,1.87-2.44,0-4.81-1.47-4.81-5.03,0-5.8,6.81-13.65,13.52-13.65,2.22,0,3.1,1.23,3.1,2.9,0,3.65-4.22,9.45-8.16,9.45-1.3,0-2.02-1.27-2.02-2.15,0-.48.22-.86.66-.86,3.87,0,7.96-5.08,7.96-7.25,0-.59-.29-.97-.99-.97-3.58,0-10.71,6.62-10.71,11.61,0,1.8.86,3.08,2.86,3.08,3.5,0,7.28-5.3,8-6.02.37-.37.92-.55,1.32-.55Z"/><path class="cls-3" d="m44.56,7.11c.35-.35,1.34-.66,1.93-.07.7.7-.37,2.31-1.03,2.97-.24.24-.77.15-.97-.04-.09-.11-.13-.22,0-.35.18-.18.48-1.65,0-2.13-.11-.11-.07-.24.07-.37Z"/><path class="cls-3" d="m51.99,11.13c0,.31-.13.59-.33.59-1.34,0-1.6,9.5-5.76,9.5-2.86,0-3.19-4.42-3.19-5.63,0-.53.37-.81.68-.81.13,0,.26.07.33.18,1.74-1.36,6.46-4.73,7.39-4.73.64,0,.88.48.88.9Zm-2.75,1.21c-1.8,1.16-4.33,2.9-5.32,3.82.18.84.62,1.78,1.49,1.78,1.54,0,2.68-3.32,3.82-5.61Z"/><path class="cls-3" d="m73.93,15.2c.24,0,.42.26.42.51,0,.09-.02.18-.09.24-.51.51-4.66,8.57-12.35,8.57-4.29,0-6.84-2.84-6.84-6.62,0-7.8,9.36-15.23,15.56-15.23,3.43,0,4.81,1.93,4.81,4.4,0,4.22-4.13,9.98-8.97,9.98-2.4,0-3.87-1.54-3.87-3.65,0-3.36,4.11-7.25,7.47-7.25.64,0,1.08.48,1.08.81,0,.18-.11.31-.37.31-1.82,0-5.1,2.57-5.1,4.92,0,.86.81,1.47,1.93,1.47,3.12,0,6.16-4.26,6.16-7.12,0-1.45-.77-2.53-2.66-2.53-4.15,0-12.29,6.31-12.29,12.75,0,2.33,1.58,4.46,4.75,4.46,5.3,0,9.98-5.83,10.02-5.87.11-.11.22-.15.33-.15Z"/><path class="cls-3" d="m83.43,15.22c.24,0,.44.24.44.48,0,.09-.02.18-.09.24-.33.33-3.17,5.28-5.43,5.28-1.03,0-1.43-.51-1.43-1.3,0-.26.04-.53.11-.84-1.14,1.16-2.44,2.13-3.58,2.13-1.08,0-1.52-.66-1.52-1.65,0-3.06,4.24-9.34,7.45-9.34,1.58,0,2.2,1.03,2.44,1.8.29-.13.57-.2.84-.2.33,0,.57.11.57.29,0,.09-.04.18-.15.26-.95.95-3.14,4.13-3.14,5.21,0,.22.11.35.33.35.68,0,2.44-2.18,2.88-2.59.09-.09.2-.13.29-.13Zm-4-.59c.44-.59.9-1.16,1.34-1.65-.09-.66-.64-1.38-1.25-1.38-1.41,0-4.51,4.51-4.51,5.94,0,.26.11.42.35.42,1.01,0,3.17-2.33,4.07-3.32Z"/><path class="cls-3" d="m89.65,10.17c.62,0,1.39.84,1.39,1.36,0,.11-.02.2-.09.26-1.43,1.43-4.02,4.68-4.02,5.78,0,.24.11.37.4.37.68,0,2.44-2.15,2.86-2.59.09-.09.2-.13.29-.13.26,0,.46.26.46.51,0,.09-.02.18-.09.24-.33.33-3.17,5.28-5.43,5.28-1.1,0-1.54-.57-1.54-1.47,0-1.87,1.87-5.08,3.65-7.43-.37.09-.75.11-1.1.11-.37,0-.73-.04-1.01-.13-.7,2.18-2.24,5.14-3.6,6.48-.09.09-.2.13-.31.13-.46,0-1.03-.73-1.03-1.12,0-.09.02-.15.07-.2,2.26-2.24,3.74-4.59,3.74-6.57,0-.51.66-.92,1.12-.92.22,0,.4.09.4.35,0,.46.57.77,1.3.77.68,0,1.47-.24,2.13-.9.13-.13.26-.18.44-.18Z"/><path class="cls-3" d="m103.83,4.74c.73,0,1.58.66,1.58,1.17,0,.11-.04.2-.13.29-3.36,3.36-8.29,10-8.29,11.47,0,.18.09.29.26.29.68,0,2.46-2.18,2.88-2.59.09-.09.2-.13.31-.13.24,0,.44.24.44.48,0,.09-.02.18-.09.24-.33.33-3.17,5.28-5.43,5.28-.97,0-1.38-.48-1.38-1.32,0-.4.09-.84.26-1.36-1.3,1.41-2.79,2.68-4.11,2.68-1.08,0-1.52-.66-1.52-1.65,0-3.06,4.24-9.34,7.45-9.34,1.17,0,1.8.55,2.15,1.14,2.11-3.06,4.33-5.78,4.95-6.37.18-.18.42-.26.66-.26Zm-7.67,9.85c.37-.64.79-1.3,1.21-1.93-.18-.57-.64-1.06-1.16-1.06-1.41,0-4.51,4.51-4.51,5.94,0,.26.11.42.35.42,1.03,0,3.23-2.42,4.11-3.36Z"/><path class="cls-3" d="m108.75,11.13c0,.31-.13.59-.33.59-1.34,0-1.6,9.5-5.76,9.5-2.86,0-3.19-4.42-3.19-5.63,0-.53.37-.81.68-.81.13,0,.26.07.33.18,1.74-1.36,6.46-4.73,7.39-4.73.64,0,.88.48.88.9Zm-2.75,1.21c-1.8,1.16-4.33,2.9-5.32,3.82.18.84.62,1.78,1.49,1.78,1.54,0,2.68-3.32,3.82-5.61Z"/><path class="cls-2" d="m18.28,13.13c.42,1.23.73,2.62.9,4.04,2.09-4.46,5.76-9.98,8.57-13.19-3.43,1.08-6.48,5.01-9.47,9.14Z"/><path class="cls-2" d="m45.42,17.95c1.54,0,2.68-3.32,3.82-5.61-1.8,1.16-4.33,2.9-5.32,3.82.18.84.62,1.78,1.49,1.78Z"/><path class="cls-2" d="m107.87,7.56c-.1,0-.2,0-.3.01.33-.5.51-1.07.51-1.67,0-2.2-2.25-3.84-4.25-3.84-.94,0-1.87.37-2.53,1.03-.66.64-2.18,2.51-3.77,4.66-.46-.12-.95-.19-1.46-.19-1.31,0-2.53.5-3.6,1.21-.76-.76-1.78-1.27-2.81-1.27-.81,0-1.54.27-2.14.78-.55-.51-1.29-.83-2.13-.83-.98,0-2.01.44-2.76,1.18-.88-.69-1.98-1.07-3.24-1.07-.44,0-.87.06-1.29.16.02-.22.03-.44.03-.66,0-4.29-2.94-7.07-7.49-7.07-3.74,0-8.19,2.01-11.9,5.39-1.7,1.55-3.09,3.26-4.13,5.04-.32-1.65-1.73-2.86-3.48-2.86-.48,0-.98.09-1.73.44.13-1.55-.68-2.53-.99-2.84-.72-.72-1.7-1.12-2.74-1.12h0s-.04,0-.06,0c-.59-2.5-2.65-4.04-5.59-4.04-2.52,0-4.99.84-7.22,2.21-.74-1.26-2.15-2.21-3.57-2.21-4.36,0-8.2,3.34-11.65,6.93-1.13-1.01-2.63-1.81-4.57-1.81-2.48,0-5.11,1.95-5.11,5.57,0,2.27,1.25,3.45,2.58,3.71-2.44,2.33-4.98,4.19-7.28,4.19-1.81,0-3.18,1.47-3.18,3.42,0,2.61,2.22,5.31,5.95,5.31,3.47,0,6.41-2.36,8.95-5.27-.01.17-.02.34-.02.51,0,2.99,2.23,4.56,4.43,4.56,2.92,0,6.12-2.7,6.12-5.16,0-.15-.02-.41-.09-.71.27.35.56.65.83.89.14.13.29.25.44.37-.06.33-.09.69-.09,1.08,0,3.37,2.21,5.81,5.27,5.81,4.69,0,7.25-4.68,9.24-8.92.93,1.99,2.52,3.4,4.87,3.4,3.85,0,5.55-3.66,6.52-6.75-.02.25-.03.5-.03.76,0,5.47,3.91,9.29,9.51,9.29,3.44,0,6.62-1.27,9.53-3.76.58.3,1.26.47,2.01.47.83,0,1.67-.21,2.53-.65.65.42,1.46.65,2.37.65,1.33,0,2.54-.61,3.66-1.56.74.99,1.93,1.59,3.4,1.59.85,0,1.64-.25,2.4-.67.65.41,1.44.65,2.33.65.97,0,1.89-.3,2.73-.76.67.48,1.53.76,2.5.76,1.33,0,2.53-.61,3.65-1.55.91.96,2.12,1.55,3.65,1.55,4.68,0,6.17-5.4,7.06-8.62.13-.47.29-1.05.42-1.46.77-.58,1.27-1.56,1.27-2.69,0-2-1.56-3.57-3.55-3.57Zm-62.41,2.45c-.1.1-.26.15-.42.15-.15,0-.29-.04-.41-.1.53-1.13.89-2.27,1.04-3.35.29,0,.59.1.82.33.7.7-.37,2.31-1.03,2.97Zm-26.15,14.44c-.84,0-1.76-.51-1.76-1.89,0-.48.09-1.03.24-1.67-.04-2.02-.48-3.91-1.14-5.5-3.45,4.79-6.88,9.25-10.7,9.25-2.33,0-3.28-1.63-3.28-2.64,0-.44.18-.75.51-.75,4.29,0,8.31-3.89,12.24-8.13-.9-1.27-1.93-2.04-2.86-2.04-.62,0-1.25.7-1.54.7-.31,0-.48-.46-.48-1.1,0-1.19.66-2.9,2.44-2.9,1.89,0,3.34,1.27,4.4,3.23,3.98-4.31,7.87-8.35,11.83-8.35.55,0,1.2.59,1.38,1.11-3,2.49-5.3,5.9-6.27,9.23-1.7,3.03-2.93,5.94-2.93,7.46s1.38.86,1.38,1.49c0,.77-1.85,2.48-3.45,2.48Zm12.48,2.29c-1.98,0-2.59-1.82-2.59-3.14,0-.75.2-1.34.46-1.34.07,0,.13.02.2.09.55.55,1.12.79,1.69.79,1.49,0,3.01-1.63,4.44-3.65-1.49,1.1-3.1,1.87-4.7,1.87-2.44,0-4.81-1.47-4.81-5.03,0-.73.11-1.48.31-2.25.02-.03.03-.06.05-.09,1.8-3.14,3.94-6.13,5.6-7.79.27-.27.48-.59.63-.95,2.11-1.56,4.53-2.57,6.93-2.57,1.91,0,2.83.92,3.04,2.24-.13.1-.25.2-.36.31-.43.43-.72.96-.85,1.52-.13.62-.06,1.25.2,1.8-.19.4-.28.83-.28,1.26-1.56,2.74-4.24,5.22-6.82,5.22-1.3,0-2.02-1.27-2.02-2.15,0-.48.22-.86.66-.86,3.87,0,7.96-5.08,7.96-7.25,0-.59-.29-.97-.99-.97-3.58,0-10.71,6.62-10.71,11.61,0,1.8.86,3.08,2.86,3.08,3.5,0,7.28-5.3,8-6.02.37-.37.92-.55,1.32-.55.33,0,.57.11.57.31,0,0,0,.01,0,.02-1.45.38-2.54,1.74-2.54,3.37,0,.22,0,.44.02.67-2.16,4.45-4.3,10.48-8.27,10.48Zm19.87-15.01c-1.34,0-1.6,9.5-5.76,9.5-2.23,0-2.92-2.68-3.11-4.44.23-.45.46-.89.69-1.26.3-.39.52-.68.69-.9,1.99-1.51,6.09-4.39,6.94-4.39.64,0,.88.48.88.9,0,.31-.13.59-.33.59Zm38.51,3.63c.09-.09.2-.13.29-.13.26,0,.46.26.46.51,0,.09-.02.18-.09.24-.17.17-1.05,1.63-2.17,2.97.15-.97.62-2.15,1.27-3.32.1-.11.18-.21.24-.26Zm-8.68,3.58c-.43,0-.65-.38-.71-.79.78-.33,1.96-2.41,2.36-2.79.09-.09.2-.13.29-.13.24,0,.44.24.44.48,0,.09-.02.18-.09.24-.17.17-1.04,1.63-2.16,2.96-.04.01-.08.03-.13.03Zm-7.89-3.58c.11-.11.22-.15.33-.15.24,0,.42.26.42.51,0,.09-.02.18-.09.24-.2.2-.97,1.57-2.29,3.17.11-.91.5-2.01,1.09-3.14.34-.37.54-.61.54-.62Zm-18.53,2.55c0-7.8,9.36-15.23,15.56-15.23,3.43,0,4.81,1.93,4.81,4.4,0,.69-.12,1.43-.33,2.17-1.2.93-2.17,2.07-2.81,2.92-.43.58-1.46,2.05-2.21,3.81-1.12.67-2.35,1.08-3.63,1.08-2.4,0-3.87-1.54-3.87-3.65,0-3.36,4.11-7.25,7.47-7.25.64,0,1.08.48,1.08.81,0,.18-.11.31-.37.31-1.82,0-5.1,2.57-5.1,4.92,0,.86.81,1.47,1.93,1.47,3.12,0,6.16-4.26,6.16-7.12,0-1.45-.77-2.53-2.66-2.53-4.15,0-12.29,6.31-12.29,12.75,0,2.33,1.58,4.46,4.75,4.46,2.08,0,4.05-.9,5.7-1.99,0,.11-.02.23-.02.34,0,.7.13,1.34.38,1.9-1.96,1.66-4.54,3.04-7.73,3.04-4.29,0-6.84-2.84-6.84-6.62Zm21.85,2.02c0-.26.04-.53.11-.84-1.07,1.09-2.28,2-3.37,2.11.84-.96,1.66-2.04,2.45-3.24.08-.12.14-.22.19-.29.06-.07.1-.14.15-.22,1.05-.74,2.33-2.12,2.97-2.83.44-.59.9-1.16,1.34-1.65-.09-.66-.64-1.38-1.25-1.38-.73,0-1.92,1.22-2.89,2.59-.14-.25-.29-.49-.48-.69.51-.83.92-1.7,1.24-2.58.68-.42,1.36-.68,2-.68,1.18,0,1.82.57,2.17,1.18-.18.92-1.01,2.43-2.91,4.31-.56.56-.86,1.3-.86,2.1,0,1.28.72,2.39,1.66,3.07-.37.21-.74.34-1.1.34-1.03,0-1.43-.51-1.43-1.3Zm7.01.37c.57-.72,1.13-1.5,1.66-2.29.09-.14.17-.25.23-.33.46-.54.72-1.23.72-1.97,0-.52-.14-1.01-.36-1.45.43-.67.89-1.32,1.34-1.92-.37.09-.75.11-1.1.11-.18,0-.36-.01-.53-.03.01-.1.02-.2.02-.3,0-.69-.27-1.4-.79-1.96.09-.03.19-.04.27-.04.22,0,.4.09.4.35,0,.46.57.77,1.3.77.68,0,1.47-.24,2.13-.9.13-.13.26-.18.44-.18.25,0,.52.14.76.34-.56.58-1.04,1.17-1.41,1.66-.72.96-3.05,4.32-3.05,7.42,0,.54.08,1.04.23,1.5-.26.11-.51.17-.76.17-.87,0-1.32-.36-1.47-.95Zm11.43.93c-.97,0-1.38-.48-1.38-1.32,0-.4.09-.84.26-1.36-1.26,1.37-2.71,2.61-4.01,2.67.85-.94,1.65-2.05,2.42-3.18.09-.14.17-.25.23-.33.03-.04.05-.08.08-.11,1.1-.71,2.53-2.28,3.2-3,.37-.64.79-1.3,1.21-1.93-.18-.57-.64-1.06-1.16-1.06-.75,0-1.97,1.28-2.96,2.69-.11-.22-.24-.43-.39-.61.56-.56.86-1.32.86-2.14,0-.12,0-.24-.02-.36.81-.58,1.62-.94,2.38-.94,1.17,0,1.8.55,2.15,1.14,2.11-3.06,4.33-5.78,4.95-6.37.18-.18.42-.26.66-.26.73,0,1.58.66,1.58,1.17,0,.11-.04.2-.13.29-1.38,1.38-3.01,3.3-4.47,5.2-.36.26-.71.51-1.02.75-1.68.19-2.99,1.67-2.99,3.46,0,1.55.25,3.1.79,4.44-.73.69-1.51,1.19-2.23,1.19Zm5.43-5.28c-.11.11-.54.79-1.13,1.62-.1-.57-.16-1.1-.18-1.51.29-.32.52-.59.65-.71.09-.09.2-.13.31-.13.24,0,.44.24.44.48,0,.09-.02.18-.09.24Zm7.63-4.22c-1.34,0-1.6,9.5-5.76,9.5-.77,0-1.35-.33-1.8-.82.6-.75,1.19-1.56,1.75-2.4.06-.08.1-.15.15-.22,1.26-.68,2.25-3.46,3.25-5.45-.86.55-1.88,1.24-2.82,1.9-.15-.3-.34-.57-.58-.81.03-.04.06-.08.09-.12,2.04-1.45,4.53-3.09,5.18-3.09s.88.48.88.9c0,.31-.13.59-.33.59Z"/><path class="cls-1" d="m21.38,20.48c0-3.17,5.3-12.31,9.17-16.18.07-.07.09-.15.09-.26,0-.55-.79-1.36-1.43-1.36-3.96,0-7.85,4.04-11.83,8.35-1.06-1.96-2.51-3.23-4.4-3.23-1.78,0-2.44,1.71-2.44,2.9,0,.64.18,1.1.48,1.1.29,0,.92-.7,1.54-.7.92,0,1.96.77,2.86,2.04-3.93,4.24-7.96,8.13-12.24,8.13-.33,0-.51.31-.51.75,0,1.01.95,2.64,3.28,2.64,3.82,0,7.25-4.46,10.7-9.25.66,1.58,1.1,3.47,1.14,5.5-.15.64-.24,1.19-.24,1.67,0,1.38.92,1.89,1.76,1.89,1.6,0,3.45-1.71,3.45-2.48,0-.64-1.38-.04-1.38-1.49Zm-2.2-3.3c-.18-1.43-.48-2.81-.9-4.04,2.99-4.13,6.05-8.07,9.47-9.14-2.81,3.21-6.48,8.73-8.57,13.19Z"/><path class="cls-1" d="m42.01,11.9c-.4,0-.95.18-1.32.55-.73.73-4.51,6.02-8,6.02-2,0-2.86-1.27-2.86-3.08,0-4.99,7.12-11.61,10.71-11.61.7,0,.99.37.99.97,0,2.18-4.09,7.25-7.96,7.25-.44,0-.66.37-.66.86,0,.88.73,2.15,2.02,2.15,3.93,0,8.16-5.8,8.16-9.45,0-1.67-.88-2.9-3.1-2.9-6.7,0-13.52,7.85-13.52,13.65,0,3.56,2.37,5.03,4.81,5.03,1.6,0,3.21-.77,4.7-1.87-1.43,2.02-2.95,3.65-4.44,3.65-.57,0-1.14-.24-1.69-.79-.07-.07-.13-.09-.2-.09-.26,0-.46.59-.46,1.34,0,1.32.62,3.14,2.59,3.14,4.7,0,6.84-8.44,9.47-12.73,1.23-1.63,1.32-1.65,1.32-1.8,0-.2-.24-.31-.57-.31Z"/><path class="cls-1" d="m44.5,9.97c.2.2.73.29.97.04.66-.66,1.74-2.26,1.03-2.97-.59-.59-1.58-.29-1.93.07-.13.13-.18.26-.07.37.48.48.18,1.96,0,2.13-.13.13-.09.24,0,.35Z"/><path class="cls-1" d="m51.11,10.23c-.92,0-5.65,3.36-7.39,4.73-.07-.11-.2-.18-.33-.18-.31,0-.68.29-.68.81,0,1.21.33,5.63,3.19,5.63,4.15,0,4.42-9.5,5.76-9.5.2,0,.33-.29.33-.59,0-.42-.24-.9-.88-.9Zm-5.69,7.72c-.88,0-1.32-.95-1.49-1.78.99-.92,3.52-2.66,5.32-3.82-1.14,2.29-2.29,5.61-3.82,5.61Z"/><path class="cls-1" d="m80.95,17.63c-.24.21-.48.28-.69.31s-.33-.13-.33-.35c0-1.08,2.2-4.26,3.14-5.21.11-.09.15-.18.15-.26,0-.18-.24-.29-.57-.29-.26,0-.55.07-.84.2-.24-.77-.86-1.8-2.44-1.8-2.19,0-4.85,2.92-6.33,5.74-1.38,1.5-5.23,5.25-9.48,5.25-3.17,0-4.75-2.13-4.75-4.46,0-6.44,8.13-12.75,12.29-12.75,1.89,0,2.66,1.08,2.66,2.53,0,2.86-3.03,7.12-6.16,7.12-1.12,0-1.93-.62-1.93-1.47,0-2.35,3.28-4.92,5.1-4.92.26,0,.37-.13.37-.31,0-.33-.44-.81-1.08-.81-3.36,0-7.47,3.89-7.47,7.25,0,2.11,1.47,3.65,3.87,3.65,4.84,0,8.97-5.76,8.97-9.98,0-2.46-1.38-4.4-4.81-4.4-6.2,0-15.56,7.43-15.56,15.23,0,3.78,2.55,6.62,6.84,6.62,4.66,0,8.02-2.96,10.06-5.41-.02.16-.04.32-.04.46,0,.99.44,1.65,1.52,1.65,1.14,0,2.44-.97,3.58-2.13-.07.31-.11.57-.11.84,0,.79.4,1.3,1.43,1.3s2.13-.43,3.13-1.63c.35-.38.67-.82,1-1.28,1.25-1.76,2.22-3.82,2.93-5.99.29.09.64.13,1.01.13.35,0,.73-.02,1.1-.11-1.78,2.35-3.65,5.56-3.65,7.43,0,.9.44,1.47,1.54,1.47s2.26-1.1,3.26-2.3c-.03.22-.05.43-.05.63,0,.99.44,1.65,1.52,1.65,1.32,0,2.81-1.28,4.11-2.68-.18.53-.26.97-.26,1.36,0,.84.42,1.32,1.38,1.32,1.48,0,3.19-2.1,4.3-3.65.31,1.67,1.08,3.65,3,3.65,4.15,0,4.42-9.5,5.76-9.5.2,0,.33-.29.33-.59,0-.42-.24-.9-.88-.9-.92,0-5.65,3.36-7.39,4.73-.07-.11-.2-.18-.33-.18-.31,0-.68.29-.68.81,0,.12,0,.29.01.47-.71.79-1.75,1.88-2.23,1.88-.18,0-.26-.11-.26-.29,0-1.47,4.92-8.11,8.29-11.47.09-.09.13-.18.13-.29,0-.51-.86-1.17-1.58-1.17-.24,0-.48.09-.66.26-.62.59-2.84,3.32-4.95,6.37-.35-.59-.99-1.14-2.15-1.14-2.09,0-4.62,2.68-6.13,5.39-.64.72-2.03,2.33-2.62,2.33-.29,0-.4-.13-.4-.37,0-1.1,2.59-4.35,4.02-5.78.07-.07.09-.15.09-.26,0-.53-.77-1.36-1.39-1.36-.18,0-.31.04-.44.18-.66.66-1.45.9-2.13.9-.73,0-1.3-.31-1.3-.77,0-.26-.18-.35-.4-.35-.46,0-1.12.42-1.12.92,0,1.98-2,4.96-2.22,5.28s-.6.88-1.1,1.31Zm-5.59.31c-.24,0-.35-.15-.35-.42,0-1.43,3.1-5.94,4.51-5.94.62,0,1.17.73,1.25,1.38-.44.48-.9,1.05-1.34,1.65-.9.99-3.06,3.32-4.07,3.32Zm16.68,0c-.24,0-.35-.15-.35-.42,0-1.43,3.1-5.94,4.51-5.94.53,0,.99.48,1.16,1.06-.42.64-.84,1.3-1.21,1.93-.88.95-3.08,3.36-4.11,3.36Zm10.13,0c-.88,0-1.32-.95-1.49-1.78.99-.92,3.52-2.66,5.32-3.82-1.14,2.29-2.29,5.61-3.82,5.61Z"/></svg>