<?xml version="1.0" encoding="UTF-8"?><svg id="Layer_1" xmlns="http://www.w3.org/2000/svg" viewBox="0 0 63.62 18.13"><defs><style>.cls-1{fill:none;}.cls-2{fill:#fff;}.cls-3{fill:#ef4136;}.cls-4{fill:#414042;}</style></defs><path class="cls-4" d="m8.54,13.82c-1.24,1.25-2.64,2.18-4.25,2.18-.73,0-1.36-.2-1.86-.51.52.85,1.51,1.51,2.86,1.51,1.61,0,3.01-.93,4.25-2.18-.05-.07-.09-.15-.13-.22-.34-.18-.65-.43-.87-.78Z"/><path class="cls-4" d="m26.33,14.12c-.54,0-1.01-.14-1.41-.38.53.83,1.32,1.38,2.41,1.38,1.42,0,2.31-.9,2.9-2-.34-.41-.62-.86-.81-1.38-.59,1.27-1.51,2.38-3.09,2.38Z"/><path class="cls-4" d="m62.44,6.3c.11.25.17.53.17.82,0,.62-.27,1.16-.7,1.49-.07.22-.16.53-.23.78-.49,1.77-1.31,4.73-3.89,4.73-.45,0-1.29-.11-2-.83-.59.49-1.25.83-1.99.83-.53,0-1-.15-1.37-.41-.46.25-.96.41-1.49.41-.48,0-.92-.12-1.27-.34-.39.22-.83.36-1.31.36-.81,0-1.48-.33-1.89-.88-.45.32-.91.56-1.35.71-.3.11-.58.16-.85.16-.5,0-.94-.12-1.3-.35-.47.23-.92.35-1.38.35-.4,0-.77-.09-1.09-.24-1.58,1.34-3.35,2.04-5.21,2.04-1.29,0-2.4-.38-3.27-1.03.91,1.26,2.42,2.03,4.27,2.03s3.63-.7,5.21-2.04c.32.16.69.24,1.09.24.45,0,.91-.11,1.38-.35.36.22.8.35,1.3.35.28,0,.56-.05.85-.16.44-.14.9-.39,1.35-.71.41.55,1.08.88,1.89.88.48,0,.91-.14,1.31-.36.36.22.79.34,1.27.34.53,0,1.03-.16,1.49-.41.37.26.84.41,1.37.41.74,0,1.4-.34,1.99-.83.71.71,1.54.83,2,.83,2.59,0,3.41-2.96,3.89-4.73.07-.25.16-.56.23-.78.43-.33.7-.87.7-1.49,0-.83-.48-1.52-1.17-1.82Z"/><path class="cls-4" d="m23.42,12.35c-1.08,2.29-2.49,4.78-5.03,4.78-.54,0-1.03-.15-1.45-.4.51.86,1.38,1.4,2.45,1.4,2.54,0,3.94-2.48,5.03-4.78-.19-.18-.35-.39-.5-.61-.18-.11-.35-.24-.5-.39Z"/><path class="cls-4" d="m14.65,14.06c-.58.99-1.87,1.82-3.07,1.82-.4,0-.8-.1-1.17-.29.44.85,1.3,1.29,2.17,1.29,1.08,0,2.23-.67,2.87-1.53-.36-.34-.63-.78-.8-1.3Z"/><path class="cls-1" d="m18.36,6.6c-.24,0-.36.2-.36.47,0,.48.4,1.18,1.1,1.18,2.15,0,4.45-3.17,4.45-5.16,0-.91-.48-1.58-1.69-1.58-3.66,0-7.38,4.28-7.38,7.45,0,1.94,1.3,2.75,2.63,2.75.88,0,1.75-.42,2.57-1.02-.78,1.1-1.61,1.99-2.42,1.99-.31,0-.62-.13-.92-.43-.04-.04-.07-.05-.11-.05-.14,0-.25.32-.25.73,0,.72.34,1.71,1.42,1.71,2.57,0,3.73-4.6,5.17-6.94.67-.89.72-.9.72-.98,0-.11-.13-.17-.31-.17-.22,0-.52.1-.72.3-.4.4-2.46,3.29-4.37,3.29-1.09,0-1.56-.7-1.56-1.68,0-2.72,3.89-6.33,5.84-6.33.38,0,.54.2.54.53,0,1.19-2.23,3.96-4.34,3.96Z"/><path class="cls-1" d="m16.76,2.24c0-.3-.43-.74-.78-.74-2.16,0-4.28,2.21-6.45,4.56-.58-1.07-1.37-1.76-2.4-1.76-.97,0-1.33.94-1.33,1.58,0,.35.1.6.26.6.16,0,.5-.38.84-.38.5,0,1.07.42,1.56,1.12-2.15,2.31-4.34,4.44-6.68,4.44-.18,0-.28.17-.28.41,0,.55.52,1.44,1.79,1.44,2.09,0,3.96-2.43,5.84-5.05.36.86.6,1.9.62,3-.08.35-.13.65-.13.91,0,.76.5,1.03.96,1.03.88,0,1.88-.94,1.88-1.36,0-.35-.76-.02-.76-.82,0-1.73,2.89-6.72,5-8.83.04-.04.05-.08.05-.14Zm-6.25,7.17c-.1-.78-.26-1.54-.49-2.21,1.63-2.25,3.3-4.4,5.17-4.99-1.54,1.75-3.54,4.76-4.68,7.2Z"/><path class="cls-1" d="m24.56,4.13c.26.26.1,1.07,0,1.16-.07.07-.05.13,0,.19.11.11.4.16.53.02.36-.36.95-1.24.56-1.62-.32-.32-.86-.16-1.06.04-.07.07-.1.14-.04.2Z"/><path class="cls-1" d="m28.17,5.63c-.5,0-3.08,1.83-4.03,2.58-.04-.06-.11-.1-.18-.1-.17,0-.37.16-.37.44,0,.66.18,3.07,1.74,3.07,2.27,0,2.41-5.18,3.14-5.18.11,0,.18-.16.18-.32,0-.23-.13-.49-.48-.49Zm-3.11,4.21c-.48,0-.72-.52-.82-.97.54-.5,1.92-1.45,2.9-2.09-.62,1.25-1.25,3.06-2.09,3.06Z"/><path class="cls-1" d="m59.64,5.63c-.5,0-3.08,1.83-4.03,2.58-.04-.06-.11-.1-.18-.1-.17,0-.37.16-.37.44,0,.06,0,.16,0,.25-.39.43-.96,1.03-1.22,1.03-.1,0-.14-.06-.14-.16,0-.8,2.69-4.43,4.52-6.26.05-.05.07-.1.07-.16,0-.28-.47-.64-.86-.64-.13,0-.26.05-.36.14-.34.32-1.55,1.81-2.7,3.48-.19-.32-.54-.62-1.17-.62-1.14,0-2.52,1.46-3.34,2.93-.34.39-1.11,1.28-1.44,1.28-.16,0-.22-.07-.22-.2,0-.6,1.42-2.38,2.19-3.15.04-.04.05-.08.05-.14,0-.29-.42-.74-.75-.74-.1,0-.17.02-.24.1-.36.36-.79.49-1.16.49-.4,0-.71-.17-.71-.42,0-.14-.1-.19-.22-.19-.25,0-.61.23-.61.5,0,1.04-.74,2.26-1.9,3.44-.21.19-.4.33-.53.33-.12,0-.18-.07-.18-.19,0-.59,1.2-2.33,1.71-2.84.06-.05.08-.1.08-.14,0-.1-.13-.16-.31-.16-.14,0-.3.04-.46.11-.13-.42-.47-.98-1.33-.98-1.19,0-2.64,1.58-3.44,3.12-.74.81-2.85,2.88-5.19,2.88-1.73,0-2.59-1.16-2.59-2.43,0-3.51,4.44-6.96,6.7-6.96,1.03,0,1.45.59,1.45,1.38,0,1.56-1.66,3.89-3.36,3.89-.61,0-1.05-.34-1.05-.8,0-1.28,1.79-2.69,2.78-2.69.14,0,.2-.07.2-.17,0-.18-.24-.44-.59-.44-1.83,0-4.08,2.12-4.08,3.96,0,1.15.8,1.99,2.11,1.99,2.64,0,4.89-3.14,4.89-5.44,0-1.34-.75-2.4-2.63-2.4-3.38,0-8.49,4.05-8.49,8.31,0,2.06,1.39,3.61,3.73,3.61,2.55,0,4.38-1.62,5.5-2.96-.01.09-.02.18-.02.26,0,.54.24.9.83.9.62,0,1.33-.53,1.96-1.16-.04.17-.06.31-.06.46,0,.43.22.71.78.71.12,0,.24-.03.37-.08.41-.13,1.07-.48,1.74-1.18.74-.73,1.6-2.41,1.99-3.6.16.05.35.07.55.07.19,0,.4-.01.6-.06-.97,1.28-1.99,3.03-1.99,4.05,0,.49.24.8.84.8s1.24-.6,1.78-1.26c-.02.12-.03.24-.03.35,0,.54.24.9.83.9.72,0,1.54-.7,2.24-1.46-.1.29-.14.53-.14.74,0,.46.23.72.76.72.81,0,1.75-1.15,2.35-2,.17.91.58,2,1.63,2,2.27,0,2.41-5.18,3.14-5.18.11,0,.18-.16.18-.32,0-.23-.13-.49-.48-.49Zm-17.98,4.21c-.13,0-.19-.08-.19-.23,0-.78,1.69-3.24,2.46-3.24.34,0,.64.4.68.76-.24.26-.49.58-.73.9-.49.54-1.67,1.81-2.22,1.81Zm9.35,0c-.13,0-.19-.08-.19-.23,0-.78,1.69-3.24,2.46-3.24.29,0,.54.26.63.58-.23.35-.46.71-.66,1.06-.48.52-1.68,1.83-2.24,1.83Zm5.53,0c-.48,0-.72-.52-.82-.97.54-.5,1.92-1.45,2.9-2.09-.62,1.25-1.25,3.06-2.09,3.06Z"/><path class="cls-3" d="m61.46,5.32c-.15-.35-.39-.64-.69-.85-.32-.22-.7-.35-1.13-.35-.03,0-.05,0-.08,0,.16-.26.24-.56.24-.87,0-.29-.07-.56-.2-.81-.39-.79-1.32-1.33-2.17-1.33-.53,0-1.05.21-1.42.59-.34.33-1.16,1.34-2.03,2.51-.25-.06-.51-.1-.78-.1-.68,0-1.35.25-1.97.65-.42-.41-.98-.68-1.54-.68-.44,0-.84.14-1.17.41-.3-.27-.71-.44-1.16-.44-.58,0-1.2.28-1.61.74-.44-.38-.99-.6-1.62-.66-.09,0-.18-.02-.28-.02-.22,0-.44.03-.66.08,0-.1,0-.2,0-.3,0-.86-.22-1.61-.61-2.22-.69-1.06-1.92-1.68-3.51-1.68-3.01,0-6.73,2.41-8.67,5.57-.09.14-.18.29-.26.43-.01-.25-.07-.48-.16-.69-.3-.71-.98-1.19-1.81-1.19-.06,0-.14.02-.21.03-.21.03-.44.1-.71.21.03-.33-.03-.65-.16-.96-.09-.21-.21-.41-.39-.59-.34-.34-.79-.54-1.27-.6-.08,0-.17-.02-.25-.02s-.17.02-.25.02c-.07-.28-.18-.53-.31-.76-.52-.91-1.5-1.47-2.76-1.47-1.37,0-2.71.46-3.92,1.19-.41-.69-1.17-1.19-1.96-1.19-2.38,0-4.48,1.81-6.36,3.76-.93-.81-1.89-.97-2.49-.97-1.84,0-2.83,1.59-2.83,3.08,0,1.13.56,1.77,1.21,2,.05.02.1.04.16.05-.03.03-.06.06-.1.09-1.28,1.2-2.6,2.13-3.79,2.13-1.01,0-1.78.82-1.78,1.91,0,.93.52,1.88,1.43,2.44.5.31,1.12.5,1.85.5,1.87,0,3.46-1.25,4.84-2.8,0,.05,0,.11,0,.16,0,.59.16,1.08.42,1.46.23.34.53.6.87.78.36.19.76.29,1.17.29,1.61,0,3.38-1.49,3.38-2.86,0-.06,0-.14-.02-.24.17.2.37.39.57.55-.03.18-.05.37-.05.58,0,.41.07.79.18,1.14.16.52.44.96.8,1.3.16.15.34.28.53.39.41.24.89.38,1.41.38,2.65,0,4.06-2.7,5.17-5.08.21.51.5.95.86,1.3.15.15.32.28.5.39.4.24.87.38,1.41.38,2.59,0,3.41-2.96,3.9-4.73.02-.07.04-.15.06-.23-.13.55-.21,1.1-.21,1.65,0,.7.13,1.35.35,1.93.19.52.47.97.81,1.38.24.29.51.55.82.78.87.64,1.98,1.02,3.26,1.02,1.86,0,3.63-.7,5.21-2.04.32.16.69.24,1.09.24.45,0,.91-.11,1.38-.35.36.22.8.35,1.3.35.28,0,.56-.05.85-.16.44-.14.9-.39,1.35-.71.41.55,1.08.88,1.89.88.48,0,.91-.14,1.31-.36.36.22.79.34,1.27.34.53,0,1.03-.16,1.49-.41.37.26.84.41,1.37.41.74,0,1.4-.34,1.99-.83.71.71,1.54.83,2,.83,2.59,0,3.41-2.96,3.89-4.73.07-.25.16-.56.23-.78.43-.33.7-.87.7-1.49,0-.28-.06-.55-.16-.79Zm-35.8-1.44c.38.38-.2,1.26-.56,1.62-.13.13-.42.08-.53-.02-.05-.06-.07-.12,0-.19.1-.1.26-.9,0-1.16-.06-.06-.04-.13.04-.2.19-.19.73-.36,1.06-.04Zm-13.95,7.33c0,.79.76.47.76.82,0,.42-1.01,1.36-1.88,1.36-.46,0-.96-.28-.96-1.03,0-.26.05-.56.13-.91-.02-1.1-.26-2.14-.62-3-1.88,2.61-3.75,5.05-5.84,5.05-1.27,0-1.79-.89-1.79-1.44,0-.24.1-.41.28-.41,2.34,0,4.53-2.12,6.68-4.44-.49-.7-1.06-1.12-1.56-1.12-.34,0-.68.38-.84.38-.17,0-.26-.25-.26-.6,0-.65.36-1.58,1.33-1.58,1.03,0,1.82.7,2.4,1.76,2.17-2.35,4.29-4.56,6.45-4.56.35,0,.78.44.78.74,0,.06-.01.11-.05.14-2.11,2.11-5,7.1-5,8.83ZM22.16,2.11c-1.96,0-5.84,3.61-5.84,6.33,0,.98.47,1.68,1.56,1.68,1.91,0,3.97-2.89,4.37-3.29.2-.2.5-.3.72-.3.18,0,.31.06.31.17,0,.08-.05.1-.72.98-1.44,2.34-2.6,6.94-5.17,6.94-1.08,0-1.42-1-1.42-1.71,0-.41.11-.73.25-.73.04,0,.07.01.11.05.3.3.61.43.92.43.82,0,1.64-.89,2.42-1.99-.82.6-1.69,1.02-2.57,1.02-1.33,0-2.63-.8-2.63-2.75,0-3.17,3.72-7.45,7.38-7.45,1.21,0,1.69.67,1.69,1.58,0,1.99-2.3,5.16-4.45,5.16-.71,0-1.1-.7-1.1-1.18,0-.26.12-.47.36-.47,2.11,0,4.34-2.77,4.34-3.96,0-.32-.16-.53-.54-.53Zm6.31,4.33c-.73,0-.88,5.18-3.14,5.18-1.56,0-1.74-2.41-1.74-3.07,0-.29.2-.44.37-.44.07,0,.14.04.18.1.95-.74,3.53-2.58,4.03-2.58.35,0,.48.26.48.49,0,.17-.07.32-.18.32Zm31.46,0c-.73,0-.88,5.18-3.14,5.18-1.05,0-1.47-1.09-1.63-2-.6.85-1.54,2-2.35,2-.53,0-.76-.26-.76-.72,0-.22.05-.46.14-.74-.71.77-1.52,1.46-2.24,1.46-.59,0-.83-.36-.83-.9,0-.11.01-.23.03-.35-.55.66-1.2,1.26-1.78,1.26s-.84-.31-.84-.8c0-1.02,1.02-2.77,1.99-4.05-.2.05-.41.06-.6.06-.2,0-.4-.02-.55-.07-.38,1.19-1.24,2.86-1.99,3.6-.67.7-1.33,1.06-1.74,1.18-.13.05-.25.08-.37.08-.56,0-.78-.28-.78-.71,0-.14.02-.29.06-.46-.62.64-1.33,1.16-1.96,1.16-.59,0-.83-.36-.83-.9,0-.08,0-.17.02-.26-1.11,1.34-2.94,2.96-5.5,2.96-2.34,0-3.73-1.55-3.73-3.61,0-4.26,5.11-8.31,8.49-8.31,1.87,0,2.63,1.06,2.63,2.4,0,2.3-2.25,5.44-4.89,5.44-1.31,0-2.11-.84-2.11-1.99,0-1.83,2.24-3.96,4.08-3.96.35,0,.59.26.59.44,0,.1-.06.17-.2.17-1,0-2.78,1.4-2.78,2.69,0,.47.44.8,1.05.8,1.7,0,3.36-2.33,3.36-3.89,0-.79-.42-1.38-1.45-1.38-2.27,0-6.7,3.44-6.7,6.96,0,1.27.86,2.43,2.59,2.43,2.33,0,4.44-2.07,5.19-2.88.81-1.54,2.25-3.12,3.44-3.12.86,0,1.2.56,1.33.98.16-.07.31-.11.46-.11.18,0,.31.06.31.16,0,.05-.02.1-.08.14-.52.52-1.71,2.25-1.71,2.84,0,.12.06.19.18.19.13,0,.32-.14.53-.33,1.15-1.18,1.9-2.4,1.9-3.44,0-.28.36-.5.61-.5.12,0,.22.05.22.19,0,.25.31.42.71.42.37,0,.8-.13,1.16-.49.07-.07.14-.1.24-.1.33,0,.75.46.75.74,0,.06-.01.11-.05.14-.78.78-2.19,2.55-2.19,3.15,0,.13.06.2.22.2.32,0,1.09-.89,1.44-1.28.82-1.48,2.2-2.93,3.34-2.93.64,0,.98.3,1.17.62,1.15-1.67,2.36-3.15,2.7-3.48.1-.1.23-.14.36-.14.4,0,.86.36.86.64,0,.06-.02.11-.07.16-1.83,1.83-4.52,5.46-4.52,6.26,0,.1.05.16.14.16.27,0,.83-.6,1.22-1.03,0-.09,0-.19,0-.25,0-.29.2-.44.37-.44.07,0,.14.04.18.1.95-.74,3.53-2.58,4.03-2.58.35,0,.48.26.48.49,0,.17-.07.32-.18.32Z"/><path class="cls-3" d="m25.07,9.84c.84,0,1.46-1.81,2.09-3.06-.98.64-2.36,1.58-2.9,2.09.1.46.34.97.82.97Z"/><path class="cls-3" d="m10.02,7.21c.23.67.4,1.43.49,2.21,1.14-2.43,3.14-5.44,4.68-7.2-1.87.59-3.54,2.73-5.17,4.99Z"/><path class="cls-3" d="m53.27,6.37c-.77,0-2.46,2.46-2.46,3.24,0,.14.06.23.19.23.56,0,1.76-1.32,2.24-1.83.2-.35.43-.71.66-1.06-.1-.31-.35-.58-.63-.58Z"/><path class="cls-3" d="m43.92,6.37c-.77,0-2.46,2.46-2.46,3.24,0,.14.06.23.19.23.55,0,1.73-1.27,2.22-1.81.24-.32.49-.64.73-.9-.05-.36-.35-.76-.68-.76Z"/><path class="cls-3" d="m56.53,9.84c.84,0,1.46-1.81,2.09-3.06-.98.64-2.36,1.58-2.9,2.09.1.46.33.97.82.97Z"/><path class="cls-2" d="m23.42,12.35c-.36-.35-.65-.79-.86-1.3-1.1,2.37-2.52,5.08-5.17,5.08-.53,0-1-.14-1.41-.38.25.41.57.74.96.98.42.25.91.4,1.45.4,2.54,0,3.94-2.48,5.03-4.78Z"/><path class="cls-2" d="m29.42,11.75c-.22-.59-.35-1.23-.35-1.93,0-.55.08-1.11.21-1.65-.02.08-.04.16-.06.23-.49,1.77-1.31,4.73-3.9,4.73-.54,0-1.01-.14-1.41-.38.15.23.31.43.5.61.15.15.32.28.5.39.4.24.87.38,1.41.38,1.58,0,2.5-1.11,3.09-2.38Z"/><path class="cls-2" d="m14.65,14.06c-.11-.35-.18-.73-.18-1.14,0-.21.02-.4.05-.58-.21-.16-.4-.34-.57-.55.01.1.02.18.02.24,0,1.36-1.77,2.86-3.38,2.86-.4,0-.81-.1-1.17-.29.04.08.08.15.13.22.23.34.53.6.87.78.36.19.76.29,1.17.29,1.2,0,2.5-.83,3.07-1.82Z"/><path class="cls-2" d="m8.54,13.82c-.26-.39-.42-.87-.42-1.46,0-.05,0-.1,0-.16-1.38,1.55-2.97,2.8-4.84,2.8-.73,0-1.35-.19-1.85-.5.24.39.57.74.99,1,.51.31,1.13.51,1.86.51,1.61,0,3.01-.93,4.25-2.18Z"/><path class="cls-2" d="m30.4,5.57c-.13-.1-.27-.19-.42-.26.09.21.15.44.16.69.08-.15.17-.29.26-.43Z"/><path class="cls-2" d="m40.52,13.88c.32.16.69.24,1.09.24.45,0,.91-.11,1.38-.35.36.22.8.35,1.3.35.28,0,.56-.05.85-.16.44-.14.9-.39,1.35-.71.41.55,1.08.88,1.89.88.48,0,.91-.14,1.31-.36.36.22.79.34,1.27.34.53,0,1.03-.16,1.49-.41.37.26.84.41,1.37.41.74,0,1.4-.34,1.99-.83.71.71,1.54.83,2,.83,2.59,0,3.41-2.96,3.89-4.73.07-.25.16-.56.23-.78.43-.33.7-.87.7-1.49,0-.3-.06-.57-.17-.82-.15-.34-.38-.62-.68-.82-.09-.06-.2-.1-.31-.15.1.24.16.51.16.79,0,.62-.27,1.16-.7,1.49-.07.22-.16.53-.23.78-.49,1.77-1.31,4.73-3.89,4.73-.45,0-1.29-.11-2-.83-.59.49-1.25.83-1.99.83-.53,0-1-.15-1.37-.41-.46.25-.96.41-1.49.41-.48,0-.92-.12-1.27-.34-.39.22-.83.36-1.31.36-.81,0-1.48-.33-1.89-.88-.45.32-.91.56-1.35.71-.3.11-.58.16-.85.16-.5,0-.94-.12-1.3-.35-.47.23-.92.35-1.38.35-.4,0-.77-.09-1.09-.24-1.58,1.34-3.35,2.04-5.21,2.04-1.28,0-2.39-.38-3.26-1.02.28.38.61.71.98.99.87.65,1.98,1.03,3.27,1.03,1.86,0,3.63-.7,5.21-2.04Z"/><path class="cls-2" d="m16.76,2.24c0-.3-.43-.74-.78-.74-2.16,0-4.28,2.21-6.45,4.56-.58-1.07-1.37-1.76-2.4-1.76-.97,0-1.33.94-1.33,1.58,0,.35.1.6.26.6.16,0,.5-.38.84-.38.5,0,1.07.42,1.56,1.12-2.15,2.31-4.34,4.44-6.68,4.44-.18,0-.28.17-.28.41,0,.55.52,1.44,1.79,1.44,2.09,0,3.96-2.43,5.84-5.05.36.86.6,1.9.62,3-.08.35-.13.65-.13.91,0,.76.5,1.03.96,1.03.88,0,1.88-.94,1.88-1.36,0-.35-.76-.02-.76-.82,0-1.73,2.89-6.72,5-8.83.04-.04.05-.08.05-.14Zm-6.25,7.17c-.1-.78-.26-1.54-.49-2.21,1.63-2.25,3.3-4.4,5.17-4.99-1.54,1.75-3.54,4.76-4.68,7.2Z"/><path class="cls-2" d="m21.86,1.5c-3.66,0-7.38,4.28-7.38,7.45,0,1.94,1.3,2.75,2.63,2.75.88,0,1.75-.42,2.57-1.02-.78,1.1-1.61,1.99-2.42,1.99-.31,0-.62-.13-.92-.43-.04-.04-.07-.05-.11-.05-.14,0-.25.32-.25.73,0,.72.34,1.71,1.42,1.71,2.57,0,3.73-4.6,5.17-6.94.67-.89.72-.9.72-.98,0-.11-.13-.17-.31-.17-.22,0-.52.1-.72.3-.4.4-2.46,3.29-4.37,3.29-1.09,0-1.56-.7-1.56-1.68,0-2.72,3.89-6.33,5.84-6.33.38,0,.54.2.54.53,0,1.19-2.23,3.96-4.34,3.96-.24,0-.36.2-.36.47,0,.48.4,1.18,1.1,1.18,2.15,0,4.45-3.17,4.45-5.16,0-.91-.48-1.58-1.69-1.58Z"/><path class="cls-2" d="m24.56,5.48c.11.11.4.16.53.02.36-.36.95-1.24.56-1.62-.32-.32-.86-.16-1.06.04-.07.07-.1.14-.04.2.26.26.1,1.07,0,1.16-.07.07-.05.13,0,.19Z"/><path class="cls-2" d="m28.17,5.63c-.5,0-3.08,1.83-4.03,2.58-.04-.06-.11-.1-.18-.1-.17,0-.37.16-.37.44,0,.66.18,3.07,1.74,3.07,2.27,0,2.41-5.18,3.14-5.18.11,0,.18-.16.18-.32,0-.23-.13-.49-.48-.49Zm-3.11,4.21c-.48,0-.72-.52-.82-.97.54-.5,1.92-1.45,2.9-2.09-.62,1.25-1.25,3.06-2.09,3.06Z"/><path class="cls-2" d="m39.8,10.46c-.01.09-.02.18-.02.26,0,.54.24.9.83.9.62,0,1.33-.53,1.96-1.16-.04.17-.06.31-.06.46,0,.43.22.71.78.71.12,0,.24-.03.37-.08.41-.13,1.07-.48,1.74-1.18.74-.73,1.6-2.41,1.99-3.6.16.05.35.07.55.07.19,0,.4-.01.6-.06-.97,1.28-1.99,3.03-1.99,4.05,0,.49.24.8.84.8s1.24-.6,1.78-1.26c-.02.12-.03.24-.03.35,0,.54.24.9.83.9.72,0,1.54-.7,2.24-1.46-.1.29-.14.53-.14.74,0,.46.23.72.76.72.81,0,1.75-1.15,2.35-2,.17.91.58,2,1.63,2,2.27,0,2.41-5.18,3.14-5.18.11,0,.18-.16.18-.32,0-.23-.13-.49-.48-.49-.5,0-3.08,1.83-4.03,2.58-.04-.06-.11-.1-.18-.1-.17,0-.37.16-.37.44,0,.06,0,.16,0,.25-.39.43-.96,1.03-1.22,1.03-.1,0-.14-.06-.14-.16,0-.8,2.69-4.43,4.52-6.26.05-.05.07-.1.07-.16,0-.28-.47-.64-.86-.64-.13,0-.26.05-.36.14-.34.32-1.55,1.81-2.7,3.48-.19-.32-.54-.62-1.17-.62-1.14,0-2.52,1.46-3.34,2.93-.34.39-1.11,1.28-1.44,1.28-.16,0-.22-.07-.22-.2,0-.6,1.42-2.38,2.19-3.15.04-.04.05-.08.05-.14,0-.29-.42-.74-.75-.74-.1,0-.17.02-.24.1-.36.36-.79.49-1.16.49-.4,0-.71-.17-.71-.42,0-.14-.1-.19-.22-.19-.25,0-.61.23-.61.5,0,1.04-.74,2.26-1.9,3.44-.21.19-.4.33-.53.33-.12,0-.18-.07-.18-.19,0-.59,1.2-2.33,1.71-2.84.06-.05.08-.1.08-.14,0-.1-.13-.16-.31-.16-.14,0-.3.04-.46.11-.13-.42-.47-.98-1.33-.98-1.19,0-2.64,1.58-3.44,3.12-.74.81-2.85,2.88-5.19,2.88-1.73,0-2.59-1.16-2.59-2.43,0-3.51,4.44-6.96,6.7-6.96,1.03,0,1.45.59,1.45,1.38,0,1.56-1.66,3.89-3.36,3.89-.61,0-1.05-.34-1.05-.8,0-1.28,1.79-2.69,2.78-2.69.14,0,.2-.07.2-.17,0-.18-.24-.44-.59-.44-1.83,0-4.08,2.12-4.08,3.96,0,1.15.8,1.99,2.11,1.99,2.64,0,4.89-3.14,4.89-5.44,0-1.34-.75-2.4-2.63-2.4-3.38,0-8.49,4.05-8.49,8.31,0,2.06,1.39,3.61,3.73,3.61,2.55,0,4.38-1.62,5.5-2.96Zm18.82-3.68c-.62,1.25-1.25,3.06-2.09,3.06-.48,0-.72-.52-.82-.97.54-.5,1.92-1.45,2.9-2.09Zm-5.35-.41c.29,0,.54.26.63.58-.23.35-.46.71-.66,1.06-.48.52-1.68,1.83-2.24,1.83-.13,0-.19-.08-.19-.23,0-.78,1.69-3.24,2.46-3.24Zm-9.35,0c.34,0,.64.4.68.76-.24.26-.49.58-.73.9-.49.54-1.67,1.81-2.22,1.81-.13,0-.19-.08-.19-.23,0-.78,1.69-3.24,2.46-3.24Z"/></svg>