<?xml version="1.0" encoding="UTF-8"?><svg id="Layer_1" xmlns="http://www.w3.org/2000/svg" viewBox="0 0 17.15 16"><defs><style>.cls-1{fill:#212529;}</style></defs><path class="cls-1" d="m9.33,1.09s0-.07-.01-.11c-.03-.51.35-.94.85-.98.51-.04.94.35.98.85.04.51-.35.94-.85.98-.03,0-.07,0-.09,0-.02,0-.03,0-.05.02-.05.08.13.07,0,.42,0,0,0,.04-.01.08,0,.14-.06.54-.07.76.03.03.03.05.03.12-.01.1-.04.35-.08.51-.03.14-.09.16-.13.2-.07.29-.08.52-.24.86-.01.26-.03.33-.09.46,0,.39.02.44-.24,1.05-.07.29,0,.48.07.78.07.31.27.43.31.75.07.74.05,1.24-.1,1.81l.14.32c.17.08.6.29.36.63.33.17.83.36,1.24.71.16.14.34.29.5.46.3.05.27.07.49.21.65.4,1.7,1.19,2.31,1.76.1.06.15.1.23.15.01.02.02.03.01.04q-.03.08-.06.14s.09.07.13.1c.03,0,.03,0,.09-.02.08.07.17.13.21.13.1-.03.08,0,.17-.1.03-.03.08,0,.08,0,.03-.04.1-.12.2-.17.08-.04.22-.05.22-.05.05,0,.04.05.03.07-.06.03-.17.06-.23.11-.14.15-.25.34-.25.34.28-.04.46.03.69,0,.13,0,.22,0,.36-.1,0,0,.13-.09.24-.14.11-.05.22-.02.32.05.07.08.11.08,0,.19-.04.04-.09.09-.16.16-.13.12-.29.29-.46.42s-.38.26-.5.32c-.31.23-.24.17-.49.39-.03.03-.11.08-.15.1-.1.07-.13,0-.19-.11,0,0-.03-.04-.08-.14-.05-.1-.09-.22-.08-.22-.06,0-.32-.31-.32-.39-.06-.01-.3-.24-.3-.29l-.21-.17c-.24.05-.3-.1-.93-.55-.07,0-.18-.04-.35-.16-.29-.23-.98-.75-1.09-.81-.13-.07-.28-.12-.37-.2-.14-.02-.21-.04-.28-.06-.07-.02-.14-.04-.31-.07-.29-.04-.59-.15-.88-.3-.14-.07-.25-.1-.37-.15-.26-.11-.49-.21-.66-.25-.07,0-.38-.1-.55-.2-.06-.03-.09-.06-.13-.07-.09-.02-.14.01-.18.03-.21.11-.41.21-.6.31-.17.09-.33.19-.49.28-.15.09-.32.17-.5.25,0,0-.51.25-.79.36-.24.2-.74.54-1.04.71-.15.07-.44.25-.57.3-.08.06-.35.25-.56.41-.16.12-.29.23-.29.23-.09.08-.09.13-.27.05-.05.04-.09.07-.12.09-.13.09-.14.07-.19.07-.09.08-.1.04-.18.13-.05.08,0,.06-.11.1-.02,0-.03.04-.05.05-.09.08-.09.28-.3.3-.12.09-.09.19-.19.19,0,.09-.17.23-.2.23-.27.09-.29-.11-.62.04-.04.02-.1.07-.19.09-.15.03-.31,0-.42-.08-.16-.13-.32-.38-.32-.38-.05-.13-.02-.2.14-.32.07-.04.08-.08.2-.08.06-.02.04,0,.15-.02.06-.02.06,0,.18-.01.03-.02.07-.02.12-.04.09-.03.19-.07.19-.07,0,0,.02-.02.12-.01.08-.03.15-.08.2-.09,0-.12,0-.12.06-.16.07-.06.08-.05.14-.01.02-.01.03-.02.03-.04,0-.07-.06-.09-.05-.23-.02-.06-.06-.13-.05-.17,0-.05.02-.07.05-.08.03-.01.04,0,.06.02.03.03.05.13.05.13,0,.11.04.25.15.17.06-.07.08-.23.2-.2l.09.08q.08-.08.13-.1s-.08-.08,0-.13c.04-.04.1-.07.19-.17.26-.29.39-.41.67-.64.55-.46,1.19-.78,1.59-.94.13-.16.26-.28.55-.31.35-.58,1.01-1.11,1.16-1.19.12-.23.18-.2.34-.24.13-.1.16-.1.22-.21.06-.22-.13-.81.34-.85.1-.14.08-.11.19-.24-.08-.19-.11-.34-.13-.47,0-.01-.19-.15-.14-.31-.08-.09-.23-.31-.27-.41-.02,0-.04,0-.06,0-.02,0-.05,0-.08,0-.08.19-.15.2-.28.24-.23.5-.31.7-.97,1.12-.26.29-.35.62-.34.62-.05.1-.03.23,0,.31-.03.11-.02.12-.02.12.01.04.05.09.1.11.08.02.16.02.15.11,0,.11-.15.09-.23.08-.26-.04-.18-.21-.35-.15-.13.08-.18.33-.39.3-.03-.02-.02-.08,0-.11.03-.06.08-.11.05-.14-.14.04-.41.14-.41.14-.13.04-.27-.03-.15-.11.06-.02.15-.05.25-.12,0,0,.05-.08-.05-.04-.11.04-.28.07-.39.05,0,0-.24-.03-.28-.05s-.06-.09.01-.09c.1,0,.34-.03.53-.08.09-.04.26-.14.36-.19,0,0,.11-.15.16-.18.1-.11.18-.18.26-.29.08-.17.17-.45.45-.87.13-.2.29-.42.49-.63,0,0,.05-.33.31-.56.06-.14.15-.3.23-.45.03-.06.07-.11.1-.16.08-.13.16-.37.48-.4,0,0,.14-.1.19-.17.08-.07.06-.18.13-.25-.1-.1-.36-.28-.39-.54-.03-.27.07-.5.23-.66.18-.18.38-.27.61-.26.29.04.35.14.44.23.09.09.12.03.16.14.24.07.23.04.23.22.04.05.1.1.1.2.08-.17.1-.2.32-.39.05-.15.09-.31.13-.46.04-.14.09-.29.14-.39-.04-.31.05-.36.16-.63-.02-.04-.02-.05,0-.11.05-.18.12-.42.16-.57,0,0,.01-.06.08-.07.06-.2.14-.56.15-.63.06-.21.02-.27-.02-.39-.01-.04,0-.09-.03-.13-.07-.12-.14-.27-.19-.39-.03-.07-.08-.34-.08-.34-.03-.16,0-.02,0-.02"/></svg>