<?xml version="1.0" encoding="UTF-8"?><svg id="Layer_1" xmlns="http://www.w3.org/2000/svg" viewBox="0 0 166.83 44.04"><defs><style>.cls-1{fill:#fff;}.cls-2{fill:#ef4136;}.cls-3{fill:#231f20;}</style></defs><path class="cls-3" d="m47.87,6.04c0,.16-.03.3-.13.4-5.79,5.79-13.72,19.48-13.72,24.22,0,2.17,2.07,1.28,2.07,2.24,0,1.15-2.76,3.72-5.17,3.72-1.25,0-2.63-.76-2.63-2.83,0-.72.13-1.55.36-2.5-.07-3.03-.72-5.86-1.71-8.23-5.17,7.18-10.3,13.86-16.03,13.86-3.49,0-4.9-2.44-4.9-3.95,0-.66.26-1.12.76-1.12,6.42,0,12.44-5.83,18.33-12.18-1.35-1.91-2.9-3.06-4.28-3.06-.92,0-1.88,1.05-2.3,1.05-.46,0-.72-.69-.72-1.65,0-1.78.99-4.34,3.65-4.34,2.83,0,5,1.91,6.58,4.84,5.96-6.45,11.78-12.51,17.71-12.51.95,0,2.14,1.22,2.14,2.04Zm-4.31-.07c-5.13,1.61-9.71,7.5-14.19,13.69.63,1.84,1.09,3.92,1.35,6.06,3.13-6.68,8.62-14.94,12.84-19.75Z"/><path class="cls-3" d="m62.91,17.82c.49,0,.86.16.86.46,0,.23-.13.26-1.98,2.7-3.95,6.42-7.14,19.06-14.19,19.06-2.96,0-3.88-2.73-3.88-4.71,0-1.12.3-2.01.69-2.01.1,0,.2.03.3.13.82.82,1.68,1.18,2.53,1.18,2.24,0,4.51-2.44,6.65-5.46-2.24,1.65-4.64,2.8-7.04,2.8-3.65,0-7.21-2.21-7.21-7.54,0-8.69,10.2-20.44,20.24-20.44,3.32,0,4.64,1.84,4.64,4.34,0,5.46-6.32,14.15-12.21,14.15-1.94,0-3.03-1.91-3.03-3.23,0-.72.33-1.28.99-1.28,5.79,0,11.91-7.6,11.91-10.86,0-.89-.43-1.45-1.48-1.45-5.36,0-16.03,9.91-16.03,17.38,0,2.7,1.28,4.61,4.28,4.61,5.23,0,10.89-7.93,11.98-9.02.56-.56,1.38-.82,1.97-.82Z"/><path class="cls-3" d="m66.72,10.65c.53-.53,2.01-.99,2.9-.1,1.05,1.05-.56,3.46-1.55,4.44-.36.36-1.15.23-1.45-.07-.13-.16-.2-.33,0-.53.26-.26.72-2.47,0-3.19-.16-.16-.1-.36.1-.56Z"/><path class="cls-3" d="m77.85,16.67c0,.46-.2.89-.49.89-2.01,0-2.4,14.22-8.62,14.22-4.28,0-4.77-6.62-4.77-8.43,0-.79.56-1.22,1.02-1.22.2,0,.4.1.49.26,2.6-2.04,9.68-7.08,11.06-7.08.95,0,1.32.72,1.32,1.35Zm-4.11,1.81c-2.7,1.74-6.48,4.34-7.96,5.73.26,1.25.92,2.67,2.24,2.67,2.3,0,4.02-4.97,5.73-8.39Z"/><path class="cls-3" d="m110.7,22.76c.36,0,.62.4.62.76,0,.13-.03.26-.13.36-.76.76-6.98,12.84-18.5,12.84-6.42,0-10.24-4.25-10.24-9.91,0-11.68,14.02-22.81,23.3-22.81,5.13,0,7.21,2.9,7.21,6.58,0,6.32-6.19,14.94-13.43,14.94-3.59,0-5.79-2.3-5.79-5.46,0-5.04,6.15-10.86,11.19-10.86.95,0,1.61.72,1.61,1.22,0,.26-.16.46-.56.46-2.73,0-7.64,3.85-7.64,7.37,0,1.28,1.22,2.21,2.9,2.21,4.67,0,9.22-6.39,9.22-10.66,0-2.17-1.15-3.79-3.98-3.79-6.22,0-18.4,9.45-18.4,19.09,0,3.49,2.37,6.68,7.11,6.68,7.93,0,14.94-8.72,15.01-8.79.16-.16.33-.23.49-.23Z"/><path class="cls-3" d="m124.91,22.79c.36,0,.66.36.66.72,0,.13-.03.26-.13.36-.49.49-4.74,7.9-8.13,7.9-1.55,0-2.14-.76-2.14-1.94,0-.4.07-.79.16-1.25-1.71,1.74-3.65,3.19-5.36,3.19-1.61,0-2.27-.99-2.27-2.47,0-4.58,6.35-13.99,11.16-13.99,2.37,0,3.29,1.55,3.65,2.7.43-.2.86-.3,1.25-.3.49,0,.86.16.86.43,0,.13-.07.26-.23.4-1.42,1.42-4.71,6.19-4.71,7.8,0,.33.16.53.49.53,1.02,0,3.65-3.26,4.31-3.88.13-.13.3-.2.43-.2Zm-5.99-.89c.66-.89,1.35-1.74,2.01-2.47-.13-.99-.95-2.07-1.88-2.07-2.11,0-6.75,6.75-6.75,8.89,0,.4.16.62.53.62,1.51,0,4.74-3.49,6.09-4.97Z"/><path class="cls-3" d="m134.23,15.22c.92,0,2.07,1.25,2.07,2.04,0,.16-.03.3-.13.4-2.14,2.14-6.02,7.01-6.02,8.66,0,.36.17.56.59.56,1.02,0,3.65-3.23,4.28-3.88.13-.13.3-.2.43-.2.4,0,.69.4.69.76,0,.13-.03.26-.13.36-.49.49-4.74,7.9-8.13,7.9-1.65,0-2.3-.86-2.3-2.21,0-2.8,2.8-7.6,5.46-11.12-.56.13-1.12.16-1.65.16-.56,0-1.09-.07-1.51-.2-1.05,3.26-3.36,7.7-5.4,9.71-.13.13-.3.2-.46.2-.69,0-1.55-1.09-1.55-1.68,0-.13.03-.23.1-.3,3.39-3.36,5.6-6.88,5.6-9.84,0-.76.99-1.38,1.68-1.38.33,0,.59.13.59.53,0,.69.86,1.15,1.94,1.15,1.02,0,2.21-.36,3.19-1.35.2-.2.4-.26.66-.26Z"/><path class="cls-3" d="m155.46,7.09c1.09,0,2.37.99,2.37,1.74,0,.16-.07.3-.2.43-5.04,5.04-12.41,14.98-12.41,17.18,0,.26.13.43.39.43,1.02,0,3.69-3.26,4.31-3.88.13-.13.3-.2.46-.2.36,0,.66.36.66.72,0,.13-.03.26-.13.36-.49.49-4.74,7.9-8.13,7.9-1.45,0-2.07-.72-2.07-1.97,0-.59.13-1.25.39-2.04-1.94,2.11-4.18,4.02-6.15,4.02-1.61,0-2.27-.99-2.27-2.47,0-4.58,6.35-13.99,11.16-13.99,1.75,0,2.7.82,3.23,1.71,3.16-4.57,6.48-8.66,7.41-9.54.26-.26.63-.4.99-.4Zm-11.49,14.75c.56-.95,1.18-1.94,1.81-2.9-.26-.86-.96-1.58-1.74-1.58-2.11,0-6.75,6.75-6.75,8.89,0,.4.17.62.53.62,1.55,0,4.84-3.62,6.15-5.04Z"/><path class="cls-3" d="m162.83,16.67c0,.46-.2.89-.49.89-2.01,0-2.4,14.22-8.62,14.22-4.28,0-4.77-6.62-4.77-8.43,0-.79.56-1.22,1.02-1.22.2,0,.39.1.49.26,2.6-2.04,9.68-7.08,11.06-7.08.95,0,1.32.72,1.32,1.35Zm-4.11,1.81c-2.7,1.74-6.48,4.34-7.96,5.73.26,1.25.92,2.67,2.24,2.67,2.3,0,4.01-4.97,5.73-8.39Z"/><path class="cls-2" d="m27.37,19.67c.63,1.84,1.09,3.92,1.35,6.06,3.13-6.68,8.62-14.94,12.84-19.75-5.13,1.61-9.71,7.5-14.19,13.69Z"/><path class="cls-2" d="m68.01,26.87c2.3,0,4.02-4.97,5.73-8.39-2.7,1.74-6.48,4.34-7.96,5.73.26,1.25.92,2.67,2.24,2.67Z"/><path class="cls-2" d="m161.51,11.32c-.15,0-.3,0-.45.02.49-.75.76-1.61.76-2.5,0-3.29-3.36-5.74-6.37-5.74-1.41,0-2.79.56-3.79,1.54-.99.96-3.27,3.76-5.64,6.97-.69-.19-1.43-.28-2.19-.28-1.97,0-3.79.75-5.4,1.81-1.14-1.14-2.67-1.91-4.21-1.91-1.21,0-2.31.4-3.2,1.17-.82-.77-1.94-1.24-3.18-1.24-1.46,0-3.02.66-4.13,1.77-1.31-1.03-2.97-1.61-4.86-1.61-.66,0-1.31.09-1.93.24.02-.33.04-.66.04-.98,0-6.43-4.4-10.58-11.21-10.58-5.61,0-12.27,3.01-17.82,8.06-2.55,2.32-4.63,4.88-6.19,7.54-.48-2.47-2.6-4.28-5.21-4.28-.72,0-1.47.14-2.6.66.2-2.32-1.01-3.78-1.49-4.26-1.08-1.08-2.54-1.67-4.11-1.67h0s-.06,0-.09,0c-.88-3.74-3.97-6.05-8.38-6.05-3.77,0-7.47,1.26-10.8,3.31-1.1-1.88-3.21-3.31-5.35-3.31-6.53,0-12.28,4.99-17.45,10.38-1.69-1.51-3.94-2.71-6.84-2.71-3.71,0-7.65,2.92-7.65,8.34,0,3.39,1.87,5.17,3.87,5.56-3.66,3.49-7.46,6.27-10.89,6.27-2.71,0-4.76,2.2-4.76,5.12,0,3.91,3.33,7.95,8.9,7.95,5.19,0,9.6-3.53,13.41-7.89-.02.26-.03.52-.03.76,0,4.48,3.34,6.83,6.63,6.83,4.37,0,9.17-4.04,9.17-7.72,0-.23-.02-.61-.13-1.06.41.53.83.97,1.24,1.34.21.19.43.38.66.55-.09.49-.13,1.03-.13,1.61,0,5.04,3.32,8.71,7.88,8.71,7.02,0,10.86-7,13.84-13.36,1.39,2.98,3.77,5.09,7.29,5.09,5.77,0,8.3-5.47,9.76-10.1-.02.38-.04.76-.04,1.13,0,8.19,5.85,13.91,14.24,13.91,5.15,0,9.92-1.9,14.26-5.64.88.45,1.89.7,3.02.7,1.24,0,2.5-.32,3.79-.97.98.62,2.19.97,3.55.97,2,0,3.81-.91,5.48-2.34,1.11,1.48,2.9,2.37,5.08,2.37,1.27,0,2.46-.37,3.59-1,.97.62,2.16.97,3.49.97,1.45,0,2.83-.45,4.09-1.13,1,.72,2.28,1.13,3.75,1.13,1.99,0,3.79-.91,5.46-2.33,1.37,1.44,3.18,2.33,5.46,2.33,7.01,0,9.24-8.08,10.58-12.91.19-.7.44-1.58.63-2.18,1.16-.88,1.91-2.34,1.91-4.02,0-3-2.34-5.35-5.32-5.35Zm-93.44,3.67c-.15.15-.39.22-.63.22-.22,0-.44-.06-.62-.15.8-1.7,1.33-3.4,1.56-5.01.44.01.88.15,1.23.5,1.05,1.05-.56,3.46-1.55,4.44Zm-39.16,21.62c-1.25,0-2.63-.76-2.63-2.83,0-.72.13-1.55.36-2.5-.07-3.03-.72-5.86-1.71-8.23-5.17,7.18-10.3,13.86-16.03,13.86-3.49,0-4.9-2.44-4.9-3.95,0-.66.26-1.12.76-1.12,6.42,0,12.44-5.83,18.33-12.18-1.35-1.91-2.9-3.06-4.28-3.06-.92,0-1.88,1.05-2.3,1.05-.46,0-.72-.69-.72-1.65,0-1.78.99-4.34,3.65-4.34,2.83,0,5,1.91,6.58,4.84,5.96-6.45,11.78-12.51,17.71-12.51.82,0,1.8.89,2.06,1.66-4.49,3.73-7.94,8.84-9.39,13.83-2.55,4.54-4.39,8.89-4.39,11.17s2.07,1.28,2.07,2.24c0,1.15-2.76,3.72-5.17,3.72Zm18.69,3.42c-2.96,0-3.88-2.73-3.88-4.71,0-1.12.3-2.01.69-2.01.1,0,.2.03.3.13.82.82,1.68,1.18,2.53,1.18,2.24,0,4.51-2.44,6.65-5.46-2.24,1.65-4.64,2.8-7.04,2.8-3.65,0-7.21-2.21-7.21-7.54,0-1.09.16-2.22.46-3.37.03-.05.05-.09.08-.14,2.69-4.71,5.9-9.18,8.39-11.66.41-.41.72-.89.94-1.42,3.16-2.34,6.78-3.85,10.37-3.85,2.87,0,4.23,1.37,4.56,3.35-.19.15-.37.3-.54.47-.65.65-1.08,1.43-1.27,2.27-.2.92-.09,1.87.3,2.7-.29.6-.42,1.24-.41,1.89-2.33,4.1-6.35,7.81-10.2,7.81-1.94,0-3.03-1.91-3.03-3.23,0-.72.33-1.28.99-1.28,5.79,0,11.91-7.6,11.91-10.86,0-.89-.43-1.45-1.48-1.45-5.36,0-16.03,9.91-16.03,17.38,0,2.7,1.28,4.61,4.28,4.61,5.23,0,10.89-7.93,11.98-9.02.56-.56,1.38-.82,1.97-.82.49,0,.86.16.86.46,0,0,0,.02,0,.03-2.18.57-3.8,2.61-3.8,5.04,0,.33.01.66.03,1-3.23,6.67-6.43,15.69-12.38,15.69Zm29.75-22.48c-2.01,0-2.4,14.22-8.62,14.22-3.34,0-4.37-4.02-4.66-6.65.35-.68.69-1.33,1.03-1.89.45-.59.78-1.02,1.04-1.35,2.97-2.26,9.12-6.57,10.4-6.57.95,0,1.32.72,1.32,1.35,0,.46-.2.89-.49.89Zm57.66,5.43c.13-.13.3-.2.43-.2.4,0,.69.4.69.76,0,.13-.03.26-.13.36-.26.26-1.57,2.45-3.24,4.45.22-1.45.92-3.22,1.9-4.98.15-.17.27-.31.36-.4Zm-13,5.36c-.65,0-1.44-.96-1.53-1.56,1.17-.49,3.4-3.23,4-3.8.13-.13.3-.2.43-.2.36,0,.66.36.66.72,0,.13-.03.26-.13.36-.26.26-1.56,2.44-3.23,4.44-.06.02-.13.04-.19.04Zm-11.82-5.36c.16-.16.33-.23.49-.23.36,0,.62.4.62.76,0,.13-.03.26-.13.36-.3.3-1.45,2.36-3.43,4.74.16-1.36.75-3.01,1.63-4.7.51-.55.8-.91.81-.93Zm-27.75,3.82c0-11.68,14.02-22.81,23.3-22.81,5.13,0,7.21,2.9,7.21,6.58,0,1.04-.18,2.14-.49,3.25-1.8,1.39-3.25,3.1-4.2,4.37-.65.87-2.19,3.07-3.31,5.7-1.67,1.01-3.51,1.62-5.43,1.62-3.59,0-5.79-2.3-5.79-5.46,0-5.04,6.15-10.86,11.19-10.86.95,0,1.61.72,1.61,1.22,0,.26-.16.46-.56.46-2.73,0-7.64,3.85-7.64,7.37,0,1.28,1.22,2.21,2.9,2.21,4.67,0,9.22-6.39,9.22-10.66,0-2.17-1.15-3.79-3.98-3.79-6.22,0-18.4,9.45-18.4,19.09,0,3.49,2.37,6.68,7.11,6.68,3.11,0,6.07-1.34,8.53-2.98,0,.17-.02.34-.02.51,0,1.05.2,2.01.56,2.85-2.94,2.48-6.8,4.55-11.57,4.55-6.42,0-10.24-4.25-10.24-9.91Zm32.72,3.03c0-.4.07-.79.16-1.25-1.61,1.64-3.41,3-5.04,3.16,1.26-1.44,2.48-3.06,3.66-4.85.12-.18.21-.33.29-.44.09-.1.15-.22.23-.32,1.57-1.1,3.48-3.18,4.45-4.23.66-.89,1.35-1.74,2.01-2.47-.13-.99-.95-2.07-1.88-2.07-1.09,0-2.87,1.82-4.33,3.87-.2-.38-.44-.73-.72-1.04.76-1.24,1.38-2.54,1.86-3.86,1.02-.63,2.03-1.02,2.99-1.02,1.76,0,2.72.85,3.25,1.77-.27,1.38-1.51,3.64-4.35,6.45-.83.83-1.28,1.94-1.28,3.14,0,1.92,1.07,3.57,2.49,4.59-.56.31-1.11.51-1.64.51-1.55,0-2.14-.76-2.14-1.94Zm10.5.56c.86-1.08,1.69-2.24,2.49-3.43.14-.21.25-.38.34-.5.7-.81,1.08-1.84,1.08-2.94,0-.78-.21-1.51-.54-2.16.64-1,1.33-1.98,2-2.87-.56.13-1.12.16-1.65.16-.28,0-.55-.02-.8-.05.02-.15.03-.3.03-.44,0-1.04-.41-2.1-1.18-2.93.14-.04.28-.07.4-.07.33,0,.59.13.59.53,0,.69.86,1.15,1.94,1.15,1.02,0,2.21-.36,3.19-1.35.2-.2.4-.26.66-.26.37,0,.78.21,1.13.5-.84.87-1.56,1.75-2.11,2.48-1.07,1.43-4.57,6.47-4.57,11.11,0,.8.12,1.55.34,2.24-.39.16-.77.26-1.14.26-1.3,0-1.97-.54-2.2-1.42Zm17.11,1.39c-1.45,0-2.07-.72-2.07-1.97,0-.59.13-1.25.39-2.04-1.89,2.05-4.06,3.9-6,4,1.27-1.41,2.47-3.06,3.62-4.77.14-.21.25-.38.34-.5.05-.05.08-.12.12-.17,1.65-1.07,3.79-3.41,4.79-4.49.56-.95,1.18-1.94,1.81-2.9-.26-.86-.96-1.58-1.74-1.58-1.12,0-2.96,1.91-4.43,4.02-.17-.33-.35-.64-.59-.92.83-.85,1.28-1.98,1.28-3.2,0-.18-.01-.36-.03-.54,1.21-.87,2.43-1.41,3.57-1.41,1.75,0,2.7.82,3.23,1.71,3.16-4.57,6.48-8.66,7.41-9.54.26-.26.63-.4.99-.4,1.09,0,2.37.99,2.37,1.74,0,.16-.07.3-.2.43-2.06,2.06-4.51,4.95-6.69,7.78-.54.39-1.06.77-1.53,1.12-2.51.29-4.47,2.5-4.47,5.19,0,2.32.38,4.65,1.18,6.65-1.1,1.03-2.26,1.78-3.33,1.78Zm8.13-7.9c-.17.17-.8,1.19-1.69,2.43-.16-.85-.23-1.65-.26-2.26.43-.48.79-.88.97-1.06.13-.13.3-.2.46-.2.36,0,.66.36.66.72,0,.13-.03.26-.13.36Zm11.42-6.32c-2.01,0-2.4,14.22-8.62,14.22-1.15,0-2.03-.49-2.69-1.23.91-1.12,1.77-2.34,2.62-3.59.08-.12.15-.23.22-.32,1.88-1.02,3.37-5.17,4.86-8.16-1.28.83-2.81,1.85-4.22,2.85-.23-.44-.51-.86-.87-1.21.04-.06.09-.12.13-.18,3.05-2.18,6.79-4.63,7.75-4.63s1.32.72,1.32,1.35c0,.46-.2.89-.49.89Z"/><path class="cls-1" d="m32.01,30.66c0-4.74,7.93-18.43,13.72-24.22.1-.1.13-.23.13-.4,0-.82-1.19-2.04-2.14-2.04-5.92,0-11.75,6.06-17.71,12.51-1.58-2.93-3.75-4.84-6.58-4.84-2.67,0-3.65,2.57-3.65,4.34,0,.95.26,1.65.72,1.65.43,0,1.38-1.05,2.3-1.05,1.38,0,2.93,1.15,4.28,3.06-5.89,6.35-11.91,12.18-18.33,12.18-.49,0-.76.46-.76,1.12,0,1.51,1.42,3.95,4.9,3.95,5.73,0,10.86-6.68,16.03-13.86.99,2.37,1.65,5.2,1.71,8.23-.23.95-.36,1.78-.36,2.5,0,2.07,1.38,2.83,2.63,2.83,2.4,0,5.17-2.57,5.17-3.72,0-.95-2.07-.07-2.07-2.24Zm-3.29-4.94c-.26-2.14-.72-4.21-1.35-6.06,4.48-6.19,9.05-12.08,14.19-13.69-4.21,4.81-9.71,13.07-12.84,19.75Z"/><path class="cls-1" d="m62.91,17.82c-.59,0-1.42.26-1.97.82-1.09,1.09-6.75,9.02-11.98,9.02-3,0-4.28-1.91-4.28-4.61,0-7.47,10.66-17.38,16.03-17.38,1.05,0,1.48.56,1.48,1.45,0,3.26-6.12,10.86-11.91,10.86-.66,0-.99.56-.99,1.28,0,1.32,1.09,3.23,3.03,3.23,5.89,0,12.21-8.69,12.21-14.15,0-2.5-1.32-4.34-4.64-4.34-10.04,0-20.24,11.75-20.24,20.44,0,5.33,3.55,7.54,7.21,7.54,2.4,0,4.81-1.15,7.04-2.8-2.14,3.03-4.41,5.46-6.65,5.46-.86,0-1.71-.36-2.53-1.18-.1-.1-.2-.13-.3-.13-.4,0-.69.89-.69,2.01,0,1.97.92,4.71,3.88,4.71,7.04,0,10.24-12.64,14.19-19.06,1.84-2.44,1.98-2.47,1.98-2.7,0-.3-.36-.46-.86-.46Z"/><path class="cls-1" d="m66.63,14.93c.3.3,1.09.43,1.45.07.99-.99,2.6-3.39,1.55-4.44-.89-.89-2.37-.43-2.9.1-.2.2-.26.4-.1.56.72.72.26,2.93,0,3.19-.2.2-.13.36,0,.53Z"/><path class="cls-1" d="m76.53,15.32c-1.38,0-8.46,5.04-11.06,7.08-.1-.16-.3-.26-.49-.26-.46,0-1.02.43-1.02,1.22,0,1.81.49,8.43,4.77,8.43,6.22,0,6.62-14.22,8.62-14.22.3,0,.49-.43.49-.89,0-.63-.36-1.35-1.32-1.35Zm-8.52,11.55c-1.32,0-1.97-1.42-2.24-2.67,1.48-1.38,5.27-3.98,7.96-5.73-1.71,3.42-3.42,8.39-5.73,8.39Z"/><path class="cls-1" d="m161.51,15.32c-1.38,0-8.46,5.04-11.06,7.08-.1-.16-.3-.26-.49-.26-.46,0-1.02.43-1.02,1.22,0,.18,0,.43.02.7-1.06,1.18-2.62,2.82-3.35,2.82-.26,0-.39-.16-.39-.43,0-2.21,7.37-12.15,12.41-17.18.13-.13.2-.26.2-.43,0-.76-1.28-1.74-2.37-1.74-.36,0-.72.13-.99.4-.92.89-4.25,4.97-7.41,9.54-.53-.89-1.48-1.71-3.23-1.71-3.14,0-6.92,4.01-9.18,8.07-.95,1.08-3.04,3.49-3.92,3.49-.43,0-.59-.2-.59-.56,0-1.65,3.88-6.52,6.02-8.66.1-.1.13-.23.13-.4,0-.79-1.15-2.04-2.07-2.04-.26,0-.46.07-.66.26-.99.99-2.17,1.35-3.19,1.35-1.09,0-1.94-.46-1.94-1.15,0-.4-.26-.53-.59-.53-.69,0-1.68.63-1.68,1.38,0,2.96-2.21,6.48-5.6,9.84-.07.07-.1.16-.1.3,0,.04.01.08.02.12-.11.05-.22.08-.31.08-.33,0-.49-.2-.49-.53,0-1.61,3.29-6.39,4.71-7.8.16-.13.23-.26.23-.4,0-.26-.36-.43-.86-.43-.4,0-.82.1-1.25.3-.36-1.15-1.28-2.7-3.65-2.7-3.27,0-7.26,4.37-9.47,8.6-2.07,2.25-7.83,7.86-14.19,7.86-4.74,0-7.11-3.19-7.11-6.68,0-9.64,12.18-19.09,18.4-19.09,2.83,0,3.98,1.61,3.98,3.79,0,4.28-4.54,10.66-9.22,10.66-1.68,0-2.9-.92-2.9-2.21,0-3.52,4.9-7.37,7.64-7.37.4,0,.56-.2.56-.46,0-.49-.66-1.22-1.61-1.22-5.04,0-11.19,5.83-11.19,10.86,0,3.16,2.21,5.46,5.79,5.46,7.24,0,13.43-8.62,13.43-14.94,0-3.69-2.07-6.58-7.21-6.58-9.28,0-23.3,11.12-23.3,22.81,0,5.66,3.82,9.91,10.24,9.91,6.98,0,12.01-4.43,15.06-8.1-.03.24-.06.47-.06.69,0,1.48.66,2.47,2.27,2.47,1.71,0,3.65-1.45,5.36-3.19-.1.46-.16.86-.16,1.25,0,1.19.59,1.94,2.14,1.94s3.4-1.66,4.9-3.46c.1-.03.19-.08.27-.16,2.04-2.01,4.34-6.45,5.4-9.71.43.13.95.2,1.51.2.53,0,1.09-.03,1.65-.16-2.67,3.52-5.46,8.33-5.46,11.12,0,1.35.66,2.21,2.3,2.21s3.39-1.65,4.88-3.45c-.05.33-.08.65-.08.95,0,1.48.66,2.47,2.27,2.47,1.97,0,4.21-1.91,6.15-4.02-.26.79-.39,1.45-.39,2.04,0,1.25.62,1.97,2.07,1.97,2.21,0,4.78-3.14,6.44-5.47.46,2.5,1.62,5.47,4.49,5.47,6.22,0,6.62-14.22,8.62-14.22.3,0,.49-.43.49-.89,0-.63-.36-1.35-1.32-1.35Zm-48.68,11.55c-.36,0-.53-.23-.53-.62,0-2.14,4.64-8.89,6.75-8.89.92,0,1.74,1.09,1.88,2.07-.66.72-1.35,1.58-2.01,2.47-1.35,1.48-4.58,4.97-6.09,4.97Zm24.98,0c-.36,0-.53-.23-.53-.62,0-2.14,4.64-8.89,6.75-8.89.79,0,1.48.72,1.74,1.58-.63.95-1.25,1.94-1.81,2.9-1.32,1.42-4.61,5.04-6.15,5.04Zm15.17,0c-1.32,0-1.98-1.42-2.24-2.67,1.48-1.38,5.27-3.98,7.96-5.73-1.71,3.42-3.42,8.39-5.73,8.39Z"/></svg>